<?xml version="1.0" encoding="UTF-8" standalone="no"?>
<!-- Created with Inkscape (http://www.inkscape.org/) -->

<svg
   version="1.1"
   id="svg1"
   width="1024"
   height="341"
   viewBox="0 0 1024 341"
   xmlns="http://www.w3.org/2000/svg"
   xmlns:svg="http://www.w3.org/2000/svg">
  <defs
     id="defs1" />
  <g
     id="g1">
    <path
       style="fill:currentColor;stroke-width:1.28243"
       d="m 376.14366,338.09288 c -5.72582,-7.07648 -2.30173,-16.9146 9.03918,-25.97144 6.09553,-4.86786 7.31437,-7.88989 7.34999,-18.22378 0.0129,-3.77777 -1.55659,-5.05909 -2.96232,-2.41824 -1.35659,2.54852 -8.67395,1.57634 -10.46356,-1.39018 -1.6559,-2.7449 -1.74756,-2.73241 -9.36014,1.27522 -11.04583,5.81505 -20.80972,8.40608 -31.67709,8.40608 -6.66351,0 -9.91179,0.57419 -10.87553,1.92245 -0.7558,1.05736 -3.0658,2.21073 -5.13332,2.56305 -4.90765,0.83629 -9.78746,-4.32565 -8.94223,-9.45926 0.31032,-1.88479 0.23274,-3.21529 -0.17239,-2.95668 -0.40512,0.25863 -5.55677,3.20655 -11.4481,6.55095 -10.09918,5.7331 -11.30267,6.08458 -21.05302,6.14834 -10.2069,0.0667 -10.39666,0.006 -14.57954,-4.69447 -2.33092,-2.61915 -4.23803,-5.22145 -4.23803,-5.78291 0,-0.56145 -0.52203,-2.61499 -1.16007,-4.56344 l -1.16007,-3.54262 -6.68456,3.43236 c -13.36999,6.86515 -25.16833,10.38223 -34.8281,10.38223 -6.42267,0 -9.99805,0.653 -11.85826,2.16579 -6.64243,5.40186 -15.27162,0.92065 -14.11822,-7.3317 0.34647,-2.47887 0.4639,-4.50705 0.26098,-4.50705 -0.20294,0 -2.82042,1.25904 -5.81664,2.79787 -7.76896,3.99005 -17.4708,5.81693 -23.09704,4.3492 l -4.70408,-1.22716 0.55647,13.41711 c 0.76791,18.51551 -2.10324,27.77412 -7.9453,25.62129 -4.15562,-1.53136 -5.26084,-9.08629 -4.53751,-31.0169 0.3657,-11.08787 1.42343,-23.26891 2.3505,-27.06901 3.42838,-14.0531 8.16506,-20.9841 13.315,-19.48337 6.03485,1.7586 3.06974,13.58106 -5.43339,21.66401 -3.2788,3.11676 -3.57543,3.93623 -2.37085,6.5495 2.36918,5.13983 7.97909,7.51773 16.28673,6.90354 5.92351,-0.43792 9.80266,-1.89814 18.76388,-7.0632 9.39376,-5.41436 11.80125,-6.28838 14.29238,-5.18871 3.45864,1.52677 5.5208,5.33601 5.5208,10.19806 0,1.86869 0.84716,3.77508 1.8826,4.2364 6.07816,2.70807 21.26672,-0.99675 37.0639,-9.04067 l 11.04051,-5.62183 v -7.44973 c 0,-4.09735 -0.13389,-7.43909 -0.29754,-7.42604 -0.16364,0.0124 -4.27759,1.22368 -9.14209,2.69035 -4.86451,1.46669 -9.31127,2.3318 -9.8817,1.92246 -2.49563,-1.79077 0.50738,-3.92668 10.22176,-7.27029 l 10.41441,-3.58454 2.79258,-7.98093 c 3.17512,-9.07425 4.99166,-12.05593 7.3449,-12.05593 2.55846,0 1.93409,5.39194 -1.38606,11.9698 -3.4226,6.78082 -3.13248,6.95333 6.59608,3.9215 8.50523,-2.65057 17.85251,-2.75018 17.85251,-0.19026 0,1.25837 -2.22914,2.18671 -6.72321,2.79996 -3.69775,0.5046 -10.16668,1.92173 -14.37538,3.14921 -6.26662,1.82764 -7.87178,2.88448 -8.86488,5.83659 -1.53659,4.56772 -0.42392,19.59353 1.82478,24.64241 3.30892,7.42933 6.30849,9.37309 14.27918,9.2531 9.13764,-0.1375 17.51181,-3.82999 31.0237,-13.67926 9.34436,-6.81142 10.56331,-7.34244 13.82442,-6.02252 3.99311,1.6162 5.90656,4.82343 5.90656,9.90022 0,1.86869 0.84716,3.77508 1.8826,4.2364 8.1212,3.61832 34.68457,-5.25871 48.56805,-16.23061 2.92119,-2.30858 6.21466,-3.65059 8.92625,-3.63723 7.38802,0.0363 7.73867,0.84518 6.83527,15.76691 l -0.80453,13.2886 10.51613,-6.13214 c 5.78387,-3.37268 16.30755,-9.00421 23.38594,-12.51451 11.59164,-5.74849 13.26268,-6.23184 16.82522,-4.86673 2.80366,1.07432 4.64266,1.08857 6.31575,0.049 5.37203,-3.33807 6.04212,-1.21369 3.01103,9.54587 -2.26905,8.05448 -0.93697,12.47892 3.75704,12.47892 2.91422,0 42.89524,-17.6535 54.66205,-24.13588 3.27296,-1.80309 7.28978,-3.48392 8.92626,-3.7352 2.95349,-0.4535 2.97304,-0.38558 2.65187,9.2161 -0.43283,12.93985 1.03279,15.20601 9.1155,14.09455 6.11427,-0.84076 13.71687,-4.74613 25.35893,-13.02661 5.25295,-3.73618 6.95848,-5.79675 7.5838,-9.16241 2.09628,-11.28308 8.07619,-19.7228 12.96505,-18.29817 6.03484,1.7586 3.06973,13.58105 -5.4334,21.66402 -3.2788,3.11675 -3.57543,3.93621 -2.37085,6.54949 2.36918,5.13982 7.97909,7.51773 16.28673,6.90354 5.93585,-0.43883 9.80638,-1.90029 18.87312,-7.12616 6.27323,-3.61574 11.86917,-6.24166 12.43542,-5.83532 0.56624,0.40632 0.76152,3.49957 0.43394,6.87386 -0.51046,5.25825 -0.15739,6.6439 2.47031,9.6948 3.86039,4.48213 9.35657,4.65778 20.6037,0.65848 8.22224,-2.9237 25.67777,-12.40736 28.98692,-15.74871 2.62803,-2.65362 10.57534,-6.2234 13.85494,-6.2234 2.54054,0 2.75258,0.41589 1.93745,3.80008 -0.50342,2.09006 -0.8995,6.50645 -0.88017,9.81419 0.0408,6.96015 2.49719,9.89865 8.22597,9.83982 4.79436,-0.0492 17.22131,-6.34799 26.7683,-13.56784 5.50394,-4.16232 8.0127,-5.36526 8.92626,-4.2801 1.60815,1.91024 -2.56112,5.92268 -14.08413,13.55428 -9.46323,6.26743 -21.07051,10.32529 -25.98899,9.08567 -3.70924,-0.93486 -8.04813,-6.60756 -8.04813,-10.52219 0,-2.4842 -0.14959,-2.46481 -2.67788,0.34696 -6.2617,6.96383 -13.98446,7.57753 -13.98446,1.11129 0,-1.55662 -0.40168,-2.59597 -0.89262,-2.30965 -13.2634,7.73494 -22.40708,11.03953 -32.67158,11.80772 -8.96872,0.67122 -9.24381,0.59539 -12.7943,-3.52694 -3.10906,-3.60979 -4.34581,-7.44205 -3.76945,-11.68021 0.19936,-1.46599 -2.73085,-1.28903 -4.08415,0.24662 -1.87991,2.13326 -13.78326,7.13537 -20.31672,8.53766 -3.68602,0.79115 -8.01605,0.82715 -10.84132,0.0902 l -4.70408,-1.22715 0.55647,13.41711 c 0.77034,18.57441 -2.10165,27.7747 -7.99258,25.60386 -3.87544,-1.42811 -5.13774,-9.39823 -4.67145,-29.49531 0.23237,-10.01573 0.2374,-18.21016 0.0109,-18.20985 -0.22625,3.2e-4 -1.83298,1.16546 -3.5705,2.58924 -5.815,4.76496 -17.94713,11.23716 -23.67379,12.62943 -8.06437,1.96057 -12.3413,0.26479 -14.98587,-5.94185 l -2.17584,-5.10654 -3.77499,3.2382 c -7.59016,6.51122 -11.51065,6.05573 -11.51065,-1.33743 0,-2.57874 -0.19516,-4.68863 -0.43368,-4.68863 -0.66707,0 -24.2341,10.43322 -32.5698,14.41877 -15.25572,7.29423 -22.7978,3.71444 -21.38358,-10.14956 l 0.68333,-6.69886 -4.39002,-0.83662 c -5.24186,-0.99895 -18.47963,4.75101 -38.90485,16.89872 l -13.09184,7.78625 -2.48206,11.45713 c -1.36513,6.30143 -3.56039,13.14159 -4.87834,15.20037 -3.24053,5.06202 -8.51228,5.63273 -12.01728,1.30095 z m 8.5373,-4.12152 c 1.95428,-3.55075 5.73688,-17.78636 4.96439,-18.68326 -1.06543,-1.23703 -10.06755,8.43664 -11.44564,12.29945 -1.22939,3.44603 -1.12899,4.43498 0.68679,6.76454 2.72623,3.49763 3.6949,3.43398 5.79446,-0.38073 z M 154.92609,312.89812 c -0.10173,-6.97227 -0.94996,-14.86528 -1.93045,-17.96406 l -1.74893,-5.52742 -0.9013,10.88342 c -0.88384,10.67249 -0.16851,25.94401 1.34873,28.79437 1.81881,3.41685 3.40232,-4.51371 3.23195,-16.18631 z m 418.93878,0 c -0.10173,-6.97227 -0.94996,-14.86528 -1.93045,-17.96406 l -1.74893,-5.52742 -0.9013,10.88342 c -0.88384,10.67249 -0.16851,25.94401 1.34873,28.79437 1.81881,3.41685 3.40232,-4.51371 3.23195,-16.18631 z M 202.76064,298.30161 c 0.43005,-0.80791 -0.0739,-2.56691 -1.11992,-3.9089 -1.04602,-1.34198 -1.90184,-3.1683 -1.90184,-4.05848 0,-0.89018 -0.52538,-1.61851 -1.1675,-1.61851 -1.49542,0 -2.87175,6.26155 -1.97363,8.97894 0.78707,2.38141 4.99761,2.79608 6.16289,0.60695 z m 120.59786,0.2295 c 1.31694,-0.96865 1.10353,-2.01996 -1.11834,-5.50922 -2.8861,-4.53237 -4.61978,-3.77759 -4.65653,2.02732 -0.0291,4.60056 2.3246,6.01972 5.77487,3.4819 z m 195.4587,-12.7924 c 3.10876,-5.03042 2.85254,-5.73677 -1.19864,-3.30441 -3.50687,2.10553 -8.43627,8.35267 -8.43627,10.69145 0,2.08506 7.18604,-3.42445 9.63491,-7.38704 z m 162.90452,-0.74012 c 3.47159,-5.12423 2.14215,-5.51182 -3.16,-0.92131 -5.18785,4.49157 -6.2827,5.97247 -6.30833,8.53263 -0.0234,2.32927 6.0309,-2.53754 9.46833,-7.61132 z m -477.07689,2.78438 c -1.03729,-2.07108 -1.26954,-2.13077 -1.29926,-0.33395 -0.0385,2.32715 1.21301,4.42248 2.05651,3.44312 0.2782,-0.32301 -0.0626,-1.72213 -0.75725,-3.10917 z m 121.58425,0.87795 c -0.34914,-1.55019 -0.90075,-2.50977 -1.22577,-2.13238 -0.64388,0.74757 0.49343,4.95088 1.33958,4.95088 0.28656,0 0.23534,-1.26833 -0.11378,-2.8185 z m 61.99076,-2.8092 c 3.91571,-3.57616 3.99347,-5.4271 0.22798,-5.4271 -2.9379,0 -7.04913,4.97272 -5.89844,7.13445 0.95491,1.79392 2.27049,1.3978 5.67046,-1.70735 z M 158.63521,269.73995 c 3.26745,-5.58293 3.68943,-7.27941 1.81066,-7.27941 -1.40297,0 -5.92233,8.16332 -5.92889,10.70936 -0.008,2.80549 0.92167,2.03185 4.11823,-3.42995 z m 418.93878,0 c 3.26745,-5.58293 3.68943,-7.27941 1.81066,-7.27941 -1.40297,0 -5.92233,8.16332 -5.92889,10.70936 -0.008,2.80549 0.92167,2.03185 4.11823,-3.42995 z m 372.06526,-2.56568 c -8.83043,-2.75647 -23.24101,-11.32946 -34.95655,-20.79595 -34.33882,-27.74676 -40.6798,-31.94896 -55.23524,-36.60463 -12.52408,-4.00593 -22.97381,-3.97162 -30.99292,0.10165 -6.04078,3.06848 -14.5895,12.18322 -14.5895,15.5555 0,1.20681 -0.35541,1.24159 -1.31406,0.12852 -2.01931,-2.34454 -0.15708,-11.79007 3.72609,-18.89936 4.1606,-7.6172 11.09732,-13.67673 18.35892,-16.03731 l 5.41273,-1.75951 -0.0175,-83.07697 c -0.0136,-64.078965 -0.36084,-83.866968 -1.51873,-86.531592 -0.82567,-1.900046 -3.24115,-4.112846 -5.36776,-4.917347 -2.12659,-0.804486 -3.49619,-1.892694 -3.04356,-2.41824 1.34249,-1.5587 44.46243,-1.14525 44.46243,0.426329 0,0.760018 -0.77349,1.381852 -1.71888,1.381852 -0.94539,0 -3.22158,1.500511 -5.05821,3.334476 l -3.33933,3.334478 v 85.361284 85.36129 l 11.3066,5.04318 c 12.45212,5.55413 21.43166,11.26238 41.08542,26.11777 15.54053,11.7464 33.25015,22.49183 41.99908,25.48322 3.47532,1.18824 10.17,2.55868 14.87709,3.04539 15.43094,1.59554 32.37433,-5.90785 44.58233,-19.74324 4.6329,-5.25042 6.154,-6.37837 5.5905,-4.14554 -4.5925,18.19956 -20.4429,35.10198 -38.04398,40.56904 -7.77559,2.41516 -28.02408,2.23936 -36.20491,-0.31435 z m -330.48529,-2.77985 c 1.04191,-3.15248 5.79044,-9.89708 7.60237,-10.79806 3.10632,-1.54464 2.78679,3.45018 -0.51587,8.06414 -3.5451,4.95265 -8.44451,6.84281 -7.0865,2.73392 z m 51.59782,-26.22709 c -17.33486,-3.63936 -32.0251,-12.90313 -43.42311,-27.38296 -3.3258,-4.22504 -11.01234,-16.24595 -17.08121,-26.71313 -13.83333,-23.85883 -17.8168,-29.5704 -26.44398,-37.9158 -6.39548,-6.18657 -7.38392,-6.67969 -13.38938,-6.67969 h -6.48412 v 28.95387 c 0,31.43016 0.54401,34.77473 6.09009,37.44199 1.87054,0.89958 3.12839,2.14773 2.79521,2.77364 -0.69724,1.30987 -43.39777,1.05926 -43.3992,-0.25473 -5.2e-4,-0.47781 1.62625,-1.6513 3.61504,-2.60776 1.9888,-0.95647 4.1311,-2.85653 4.76067,-4.22236 0.69891,-1.51627 1.14468,-37.25207 1.14468,-91.76641 V 20.510903 l -2.92132,-3.391809 c -1.60673,-1.8655 -3.74903,-3.391824 -4.76068,-3.391824 -1.01164,0 -1.83934,-0.621834 -1.83934,-1.381852 0,-1.849525 66.57635,-1.843059 75.11562,0.007 20.03265,4.340838 35.75057,22.610628 40.17554,46.698207 2.86467,15.594032 0.92153,35.102874 -4.7761,47.951335 -6.0489,13.6406 -17.72101,25.28567 -28.58458,28.51835 -3.16788,0.94265 -5.75979,2.09328 -5.75979,2.55694 0,0.46366 1.78631,1.59298 3.96956,2.5096 2.18327,0.91664 7.13734,5.01315 11.00905,9.10336 6.70921,7.08788 10.84549,13.86288 26.66595,43.67745 12.76321,24.05299 24.57452,35.86462 40.91541,40.91645 8.24688,2.54956 22.69776,2.40973 30.58742,-0.29595 6.20299,-2.12727 18.96115,-9.9866 18.96115,-11.68055 0,-0.44829 -3.07956,-1.48824 -6.84346,-2.31094 -22.23582,-4.86032 -42.99869,-22.84589 -54.07347,-46.84044 C 661.77891,140.66042 660.4326,94.557553 673.44536,59.052978 684.5634,28.718034 705.3847,8.0290494 730.80072,2.0621183 751.04504,-2.6906498 766.50847,0.66578454 782.2929,13.23881 c 3.30431,2.63204 6.26586,2.325698 8.64004,-0.893727 1.12096,-1.520036 2.45465,-2.7637033 2.96376,-2.7637033 0.50913,0 0.92567,6.2183323 0.92567,13.8185153 0,14.885111 -1.24707,17.376521 -5.00278,9.994615 -3.59813,-7.072179 -12.13613,-17.292338 -18.16923,-21.748961 -16.47358,-12.16894452 -37.96144,-9.2793405 -53.078,7.137733 -11.02328,11.971657 -17.3541,25.863963 -23.31995,51.173169 -2.9383,12.465345 -3.197,15.662796 -3.2208,39.809159 -0.0275,27.90826 1.04556,36.69394 6.68484,54.73215 8.08711,25.86806 20.6248,41.94045 38.81277,49.75507 l 5.19063,2.23019 4.15438,-4.99389 4.1544,-4.9939 -2.50175,4.99997 -2.50176,4.99996 4.80308,0.74798 c 9.4308,1.46866 17.06448,-3.20637 21.71174,-13.29678 2.50674,-5.44272 2.66476,-7.63426 3.02983,-42.01585 l 0.38516,-36.2736 h -9.66806 c -9.7415,0 -14.64046,1.68485 -17.81589,6.12722 -2.52472,3.53204 -3.63562,2.50427 -3.63562,-3.36354 v -5.52741 h 32.1345 c 19.60943,0 32.13452,0.51412 32.13452,1.31905 0,0.72547 -1.33894,2.87362 -2.97542,4.77366 l -2.97542,3.45463 v 32.60496 c 0,26.52336 0.33869,33.36538 1.81582,36.68187 0.99868,2.24231 2.33762,4.07692 2.97541,4.07692 0.63779,0 1.15961,0.86003 1.15961,1.91115 0,1.60561 -0.80866,1.58386 -5.05822,-0.13612 -7.22504,-2.92424 -16.06469,-1.55436 -24.40618,3.78224 -10.17833,6.51176 -18.49856,9.50022 -29.29043,10.52052 -7.5585,0.7146 -10.39132,1.60209 -12.92669,4.04975 -12.87859,12.43313 -41.07837,17.60821 -66.67108,12.23515 z M 594.39594,130.77518 c 15.28569,-8.99337 24.3834,-30.61123 24.48362,-58.177639 0.0913,-25.108654 -6.56359,-42.429942 -20.27297,-52.766357 -4.84609,-3.653808 -6.18125,-3.954251 -19.93529,-4.48589 l -14.74132,-0.569807 v 60.475804 60.475819 l 12.2594,-0.72647 c 9.95004,-0.5896 13.37971,-1.38558 18.20656,-4.22546 z M 58.334706,215.39576 C 28.012128,206.30404 5.6173921,174.18352 0.87681088,132.98452 -0.93073452,117.27568 0.14282402,93.541464 3.3021493,79.365219 7.7913853,59.221512 18.280686,37.746834 29.723762,25.272432 34.487904,20.078922 45.191971,12.070609 51.385791,9.0658554 58.084551,5.8161563 72.546683,2.6724568 80.797748,2.6724568 c 9.536554,0 19.561302,3.07889 32.010602,9.8313632 l 10.06808,5.460912 3.3213,-2.851023 3.32129,-2.851022 v 13.168948 c 0,14.554711 -1.29359,16.663209 -5.32408,8.677945 C 120.36672,26.525067 110.26149,16.249868 102.44182,11.990573 93.896358,7.3359571 79.736157,5.4925543 71.795925,8.0010567 56.360983,12.877279 42.956204,29.765259 34.981541,54.381549 c -6.512336,20.10239 -8.326426,33.020781 -8.262564,58.839031 0.05326,21.51 0.400105,25.66088 3.139009,37.56114 8.507099,36.96236 26.21076,59.25961 50.180461,63.20085 15.809907,2.59955 29.903233,-2.63164 41.935783,-15.56584 3.99732,-4.29685 7.59796,-7.81246 8.00141,-7.81246 2.28224,0 -0.0247,4.59757 -5.37541,10.71323 -6.871,7.85314 -15.25906,13.09873 -24.59642,15.38173 -9.851258,2.40865 -31.552565,1.7298 -41.669104,-1.30347 z m 22.982557,-35.84631 c 0.40456,-0.76002 1.468445,-1.38186 2.364198,-1.38186 0.895741,0 2.738642,-1.63843 4.09534,-3.64098 2.401487,-3.54471 2.466707,-5.0925 2.466707,-58.54233 0,-53.449821 -0.06521,-54.997605 -2.466707,-58.54233 -1.356698,-2.002538 -3.199599,-3.640986 -4.09534,-3.640986 -0.895753,0 -1.959638,-0.621833 -2.364198,-1.381852 -0.48503,-0.911193 13.476195,-1.381851 40.990517,-1.381851 h 41.72609 v 11.745738 c 0,6.909259 -0.49007,11.745739 -1.19017,11.745739 -0.65459,0 -1.19017,-1.047337 -1.19017,-2.32741 0,-1.280097 -1.07083,-4.895738 -2.37963,-8.03479 -3.73667,-8.96211 -7.52911,-10.365574 -28.01001,-10.365574 h -17.21704 v 35.237216 35.23721 l 11.60413,-0.002 c 13.34893,-0.002 18.46876,-2.13036 22.30943,-9.27213 1.3126,-2.44078 2.78822,-4.46173 3.27916,-4.49102 0.49095,-0.0292 0.89263,6.78694 0.89263,15.14714 0,8.3602 -0.40168,15.17643 -0.89263,15.14714 -0.49094,-0.0292 -1.96656,-2.05024 -3.27916,-4.49102 -3.84067,-7.14176 -8.9605,-9.26965 -22.30943,-9.27213 l -11.60413,-0.001 v 25.56426 25.56425 h 17.31653 c 19.05056,0 22.23214,-0.97399 26.63554,-8.15396 1.36614,-2.22758 2.81425,-5.96795 3.21802,-8.31197 1.38664,-8.04984 2.81693,-4.2499 2.81693,7.4839 v 11.74573 h -41.72609 c -27.514322,0 -41.475547,-0.47065 -40.990517,-1.38185 z m 97.800087,-0.76443 c 7.69852,-3.91527 7.52969,-2.50722 7.52969,-62.80074 0,-60.293496 0.16883,-58.885458 -7.52969,-62.800741 -3.39012,-1.724122 -1.40024,-1.920829 19.43136,-1.920829 20.8316,0 22.82147,0.196707 19.43135,1.920829 -7.73632,3.934505 -7.52968,2.105306 -7.52968,66.653831 v 58.51222 l 20.14994,-0.43645 c 23.48009,-0.50859 25.22669,-1.30418 29.24199,-13.31963 1.30918,-3.91763 2.78201,-7.12987 3.27296,-7.13832 0.49094,-0.008 0.89262,5.27022 0.89262,11.73038 v 11.74574 l -44.33372,-0.11278 c -38.92147,-0.099 -43.87264,-0.34723 -40.55682,-2.03357 z m 96.96004,-0.63424 c 2.76496,-1.6962 4.81113,-4.24949 5.65329,-7.05439 1.42276,-4.73864 1.67208,-102.114617 0.28076,-109.654973 -0.5323,-2.884853 -2.17108,-5.03482 -5.51247,-7.231991 l -4.75499,-3.126702 22.51399,-0.0228 c 12.38269,-0.01244 22.19932,0.34263 21.81472,0.789176 -0.38461,0.446545 -2.48227,1.845669 -4.66149,3.109165 -2.73427,1.585302 -4.19521,3.582022 -4.71403,6.442809 -1.38705,7.648416 -1.13293,104.967836 0.28645,109.695246 0.84216,2.8049 2.88834,5.35819 5.65329,7.05439 l 4.33341,2.65838 h -22.61317 -22.61317 z m 56.36511,1.39867 c 0.40456,-0.76002 1.46845,-1.38186 2.36419,-1.38186 0.89575,0 2.73865,-1.63843 4.09534,-3.64098 2.40263,-3.54637 2.46672,-5.08476 2.46672,-59.20544 0,-54.611916 -0.0426,-55.609281 -2.48813,-58.178834 -1.36846,-1.437913 -3.91245,-3.349276 -5.65329,-4.247494 -2.68069,-1.383136 -1.16122,-1.641543 9.92667,-1.68818 l 13.09184,-0.05514 29.15908,42.434764 29.1591,42.434784 0.31732,-37.172038 c 0.35118,-41.140237 0.23732,-41.862517 -7.19518,-45.638675 -3.61113,-1.834671 -3.1083,-1.947719 8.66311,-1.947719 11.68684,0 12.25197,0.124504 8.71985,1.920842 -7.74801,3.940447 -7.52968,1.970327 -7.52968,67.94469 0,57.61125 -0.0821,59.80307 -2.23771,59.80307 -1.5131,0 -13.10593,-15.77339 -35.80021,-48.71027 -18.45938,-26.79065 -34.05524,-48.917543 -34.65747,-49.170886 -1.63185,-0.686467 -1.41917,82.570436 0.22492,88.046236 0.84216,2.8049 2.88833,5.35819 5.65329,7.05439 l 4.33341,2.65838 -11.67437,0.061 c -7.49243,0.0392 -11.41087,-0.43394 -10.9388,-1.32078 z m 100.57035,-1.29944 c 7.8877,-4.8444 5.45866,1.50565 39.67132,-103.71033 4.56924,-14.052047 8.09023,-22.941609 9.18355,-23.186072 1.06859,-0.238936 2.37496,1.403961 3.28769,4.13461 2.61675,7.828654 30.25943,92.730852 31.84396,97.806052 5.2905,16.94542 9.67088,24.87332 13.74315,24.87332 1.15644,0 2.43364,0.62184 2.8382,1.38186 0.48057,0.90283 -7.15206,1.38186 -22.01809,1.38186 -14.86604,0 -22.49867,-0.47903 -22.01809,-1.38186 0.40456,-0.76002 1.42431,-1.38186 2.26611,-1.38186 0.8418,0 2.49726,-1.24023 3.67878,-2.75608 2.0848,-2.67469 1.9803,-3.2664 -3.53855,-20.03685 l -5.6868,-17.28075 -15.61719,0.0237 -15.61719,0.0236 -5.16044,15.69548 c -5.55926,16.90855 -5.86803,21.32022 -1.66195,23.74522 5.11862,2.95112 4.2032,3.34939 -7.5588,3.28851 l -11.80249,-0.061 z m 44.51583,-67.02152 c -3.74163,-11.08092 -6.94023,-19.985011 -7.10801,-19.786876 -0.35284,0.416717 -13.60573,41.297316 -13.60573,41.969016 0,0.24597 6.02522,0.62304 13.38938,0.83793 9.53674,0.27829 13.49554,-0.0788 13.75836,-1.24111 0.20293,-0.8975 -2.69238,-10.69803 -6.434,-21.77896 z"
       id="path1" />
  </g>
</svg>
