<?xml version="1.0" encoding="UTF-8" standalone="no"?>
<!-- Created with Inkscape (http://www.inkscape.org/) -->

<svg
   version="1.1"
   id="svg1"
   width="500"
   height="500"
   viewBox="0 0 500 500"
   xmlns="http://www.w3.org/2000/svg"
   xmlns:svg="http://www.w3.org/2000/svg">
  <defs
     id="defs1" />
  <g
     id="g1">
    <path
       style="fill:currentColor;stroke-width:1.68585"
       d="m 336.6799,435.99782 c -21.01533,-2.00555 -51.1387,-6.52691 -62.90371,-9.44152 -49.88025,-12.35709 -90.8848,-47.97753 -105.58134,-91.71797 -4.77203,-14.20276 -5.46955,-18.71606 -6.16205,-39.87153 -0.72025,-22.00287 -0.43843,-25.04979 3.62834,-39.22721 7.36925,-25.69053 18.54563,-44.50587 36.68992,-61.76723 27.16074,-25.83909 56.14392,-37.83521 91.41148,-37.83521 17.20362,0 29.14073,2.56894 46.74318,10.05948 31.94582,13.59414 53.15366,34.18334 70.38621,68.33301 11.41996,22.63086 12.93608,29.09739 12.84612,54.79046 -0.0737,21.02792 -0.48354,23.93222 -5.38924,38.18124 -8.2033,23.82724 -16.73885,36.46395 -39.92376,59.10644 -20.00733,19.53926 -28.39095,25.89337 -30.87985,23.40446 -0.69126,-0.69128 2.15249,-4.35891 6.31945,-8.15031 38.4793,-35.01132 50.6236,-50.20665 60.2709,-75.4129 6.32403,-16.52326 7.29245,-46.21969 2.1299,-65.31303 -5.65335,-20.90848 -20.87736,-46.26954 -38.13451,-63.52669 -16.54562,-16.54562 -38.11399,-29.09616 -58.09661,-33.80616 -13.37025,-3.15142 -35.31974,-3.23914 -52.30559,-0.20902 -41.71621,7.44178 -79.55615,41.48427 -94.44619,84.96793 -5.39461,15.75399 -5.58828,17.23753 -5.65081,43.28683 -0.0604,25.1157 0.24524,27.82225 4.43541,39.29111 13.6552,37.37541 39.38884,64.49975 77.79971,82.00415 31.97126,14.56978 63.51485,18.23891 149.92185,17.43887 62.02896,-0.57432 64.84897,-0.74053 73.90571,-4.35577 16.15852,-6.4501 16.65745,-7.50361 18.63367,-39.34556 2.66361,-42.91771 2.71915,-154.17845 0.087,-174.26823 -2.70831,-20.67102 -7.77945,-42.91787 -11.44213,-50.19612 -4.8065,-9.55115 -14.32347,-17.99743 -23.27381,-20.65539 -4.57818,-1.35958 -8.58487,-2.21102 -8.90379,-1.89213 -0.31891,0.31892 1.13772,2.76337 3.23697,5.43211 5.17591,6.58012 5.42565,22.15801 0.44506,27.76157 -11.78912,13.26376 -34.80311,10.95452 -42.00126,-4.21445 -5.30723,-11.18414 -1.73045,-23.88518 8.4115,-29.86907 5.83592,-3.44329 6.0109,-3.78746 3.03289,-5.96564 -1.73819,-1.27133 -5.05692,-2.77639 -7.37498,-3.34455 -2.31806,-0.56816 -9.52511,-3.4504 -16.01567,-6.40497 C 386.59913,117.83383 381.0092,112.7795 366.49852,94.302541 358.6377,84.293103 352.34062,79.61011 340.89293,75.26035 c -17.85235,-6.783368 -59.34695,-8.966934 -79.61464,-4.189556 -17.29924,4.077697 -26.28193,10.103761 -51.58207,34.604086 -12.99065,12.57996 -27.02544,24.84975 -31.18842,27.2662 -12.88128,7.47704 -25.15481,9.65738 -64.04539,11.37736 -19.935293,0.88167 -43.549483,1.92821 -52.475955,2.32567 -21.889854,0.97468 -29.718444,4.46105 -37.566715,16.72987 -7.578701,11.8474 -11.762816,24.60435 -15.5970279,47.55363 -2.7001555,16.16146 -3.0982923,28.72634 -3.0982923,97.77988 0,87.81141 0.6751266,95.24641 9.6357562,106.11721 9.765589,11.84735 14.618739,13.12772 55.26987,14.58152 19.935294,0.71295 52.177374,1.41446 71.649054,1.5589 37.82866,0.28061 54.63994,1.70618 49.07448,4.16137 -1.75295,0.77331 -37.22066,0.91484 -78.81714,0.31448 l -75.629922,-1.09154 -9.93606,-5.01569 C 3.8921607,417.68383 1.2825928,408.53097 0.21483201,335.49061 -0.78763595,266.91738 1.7375991,216.96296 7.3847793,193.65414 12.384284,173.01857 19.267803,158.65713 27.713134,151.24203 c 7.619225,-6.68977 12.259926,-8.53866 25.075825,-9.99049 l 9.975607,-1.13006 -8.711215,-5.40943 c -10.49983,-6.52007 -11.468893,-11.35781 -3.601282,-17.97797 7.675393,-6.45842 15.122619,-7.78223 43.780021,-7.78223 29.46531,0 36.15099,1.27272 42.72354,8.13297 6.58952,6.87799 4.13567,12.57994 -7.73541,17.97448 l -8.8573,4.02501 11.14946,0.0971 c 28.83414,0.25115 43.2579,-6.53386 70.26402,-33.05258 25.41095,-24.952345 31.44074,-29.896747 42.80365,-35.098861 16.42309,-7.518735 45.35638,-9.45552 77.24316,-5.170614 25.61927,3.442668 30.14316,5.970836 51.32631,28.683574 23.13771,24.808451 32.18061,29.531211 77.64201,40.549471 25.23831,6.11689 32.1115,13.03111 39.60202,39.83827 8.16091,29.20634 11.47002,91.23369 8.57594,160.75058 -2.5304,60.7811 -4.52472,81.6075 -8.20431,85.67646 -4.30296,4.75829 -13.61946,9.03851 -26.65276,12.24489 -9.36339,2.30353 -21.50955,2.95323 -62.21083,3.32764 -27.8167,0.25589 -57.16645,-0.16369 -65.22168,-0.93243 z M 442.60601,174.53093 c 11.58104,-7.15748 12.28807,-16.61868 2.07028,-27.70367 -9.35826,-10.15252 -15.86424,-10.4109 -25.27154,-1.00361 -8.21246,8.21247 -8.85847,15.73482 -2.04647,23.8304 7.60061,9.03281 15.92239,10.64026 25.24773,4.87688 z m -329.714,-39.62969 c 11.02741,-3.24129 21.80071,-9.00528 21.80071,-11.66393 0,-11.37493 -73.447286,-12.69727 -82.748656,-1.4898 -1.730265,2.08484 -1.483835,3.1681 1.36992,6.02185 9.121436,9.12141 40.165992,12.83766 59.578026,7.13188 z"
       id="path1" />
  </g>
</svg>
